/* XPM */
static char *a81ad446fc0140e6b32be9218e9e918d[] = {
/* columns rows colors chars-per-pixel */
"32 32 73 1 ",
"  c #280C0C",
". c #280D0D",
"X c #2A0D0D",
"o c #2B0E0E",
"O c #2F0D0D",
"+ c #300E0E",
"@ c #300F0F",
"# c #320F0F",
"$ c #350F0F",
"% c #341010",
"& c #351010",
"* c #361010",
"= c #361111",
"- c #481414",
"; c #491515",
": c #4B1515",
"> c #4C1616",
", c #4E1616",
"< c #501616",
"1 c #531717",
"2 c #541818",
"3 c #561818",
"4 c #571919",
"5 c #561C1A",
"6 c #591919",
"7 c #581C1A",
"8 c #591D1B",
"9 c #5B1D1B",
"0 c #5D1D1B",
"q c #5E1E1C",
"w c #601E1C",
"e c #621F1D",
"r c #64231F",
"t c #652320",
"y c #672320",
"u c #6A2421",
"i c #6B2421",
"p c #6E2623",
"a c #752A25",
"s c gray40",
"d c #686868",
"f c #6F6F6F",
"g c gray44",
"h c gray48",
"j c #7C7C7C",
"k c gray49",
"l c #7E7E7E",
"z c #808080",
"x c #818181",
"c c gray53",
"v c #8B8B8A",
"b c #8F8E8E",
"n c gray56",
"m c #909090",
"M c #929292",
"N c #939393",
"B c #949493",
"V c gray58",
"C c #979696",
"Z c #989898",
"A c gray60",
"S c #9B9B9B",
"D c gray61",
"F c #9D9D9D",
"G c #A2A2A2",
"H c #A4A3A3",
"J c #A4A4A4",
"K c #AFAEAE",
"L c #AFAFAF",
"P c #B1B0B0",
"I c #B1B1B1",
"U c #B4B4B4",
"Y c gray71",
/* pixels */
"cdsfgllCNCNCVCjjj82::<,<,,:<,<,%",
"v82<:<3:,1,2,,,%F8:::,,,2232,,<.",
"C8,:::,622:2:,,.Dt>>3<32,222,,2+",
"H8<,:,3,2:,11,:ODq:22<,<,<22:<,+",
"J5::,3<22,11<<<+D9:<22,22<22<2,+",
"Gt:,<<,3,2:222:#F9r233:,2,,2,<2.",
"P9<2:2<,22,:,11.Pyq2<<2<<222,<3O",
"U8,,<<2<:,,:::2#Uy5>23,3,,<,,:,O",
"K9,,,<,2,223:,,#Pu8<::,<:<,<2<3.",
"b92<:3,22,,,21,%Uu22:222,2,,2,,.",
"m5<,3<,,,,<,,<2.Uyq2,5:,3,2<,3:+",
"b<:3<3<,2<,,<6<#Ju82,2,2::,2<,,+",
"mr2<,<,,2,22::2Oxuq2<,,<:,,23,,O",
"b92-<,2<:3:1,,1%xuw-,<,,,2,:<,,O",
"b822,,2::<,,,22.xyq283,:::::2,:O",
"b82<,<<3,,,1:,1@gauuupqw2,,,,:,O",
"m5:,,:,:1211,,1.dsfgllmmCmCCCllh",
"mt,,1,2,:212<,1Ox..+O%%+O%.%.%+.",
"m8:112,1,211:,:@A822:<2,,,22,,<+",
"bq:262,2261212:Ox8,<:,<622-2,,,+",
"bqr222,,1,,2,22.A6,:::2<3<:3<,,O",
"by9222221:22,22@D8::3<22:,<,,3< ",
"mr23,:,1:,2,::,@Dw<,<<,:<6<22<,O",
"bu9,-:12:2,,222oD83<,,3:22,2<3<.",
"Fu2212221:,11:-.J8:,2,22,:,::-2%",
"Frw<<2:,2,2,,1:%J9::,2,1,<22:,,O",
"Cu8<,<,<:,,2:2,@G921:2,22:,,11:%",
"Cu91,,,2:,,22:,OJ8<,21,<,11::11.",
"Cur:11<,,,<:1,,+J2,<,22,11,,,21O",
"br83q<<,::,:1,,OJr<,,1:,2:61::2O",
"cauuypqy2,,,,:,%Hr2:1,,2,1,,,<2%",
"h.+$%O+.@OO%%O+OH922,,2::2,<,6<."
};
