/* XPM */
static char *e8981d7e5dff4064eb269a846f26d1dd[] = {
/* columns rows colors chars-per-pixel */
"302 33 61 1 ",
"  c #7C80FC",
". c #5C60FC",
"X c #0000A4",
"o c #484848",
"O c #000070",
"+ c #9C9CFC",
"@ c #4040FC",
"# c gray22",
"$ c #2024FC",
"% c #2C2C2C",
"& c #9C4C00",
"* c #CC6000",
"= c #B45400",
"- c #E46C00",
"; c #A85400",
": c #FC7800",
"> c #543C1C",
", c #FC8820",
"< c #6C4824",
"1 c #744C28",
"2 c #80502C",
"3 c #885830",
"4 c #483818",
"5 c #5C4020",
"6 c #A0643C",
"7 c #DC8854",
"8 c #B47044",
"9 c #9C6038",
"0 c #382C14",
"q c #FCA470",
"w c #FCB890",
"e c #C87C4C",
"r c #FCB080",
"t c #FCC4A4",
"y c #E88C58",
"u c #FC9C60",
"i c #000040",
"p c #403018",
"a c #FCD8C4",
"s c #FCE8DC",
"d c #A86840",
"f c gray33",
"g c #D8D8FC",
"h c #B8BCFC",
"j c #28200C",
"k c gray44",
"l c #00007C",
"z c black",
"x c #D0D0D0",
"c c #0000A8",
"v c #0000FC",
"b c gray99",
"n c #A80000",
"m c #BC7848",
"M c #F0945C",
"N c #905C34",
"B c #FCD4BC",
"V c #D08050",
"C c #FCBC9C",
"Z c #202020",
"A c white",
/* pixels */
"    ............................X          ...............................................X    ............................X      .........................o   ...................................X      .............................X  .....X             .................................................X",
" XXXXXXXXXXXXXXXXXXXXXXXXXXXXXXXO XXXXXXXXXXXXXXXXXXXXXXXXXXXXXXXXXXXXXXXXXXXXXXXXXXXXXXXXO XXXXXXXXXXXXXXXXXXXXXXXXXXXXXXXO ooooooooooooooooooooooooooooooO XXXXXXXXXXXXXXXXXXXXXXXXXXXXXXXXXXXXXO XXXXXXXXXXXXXXXXXXXXXXXXXXXXXXXXXXO XXXXXXO XXXXXXXXXXXXXXXXXXXXXXXXXXXXXXXXXXXXXXXXXXXXXXXXXXXXXXXXXXXXXO",
" XXX++XXXX ++X++X++XX ++X++XXXXXO XXXXXXXXXXXXXXXX +@XX.+@XX +.XXX   XXX ++XXXXXXXXXXXXXXXO XXX++XXX++X++X++XX ++XX +@XXXXXO ooooooo#############ooooooooooO XX++X++XX ++XXX +XXX++X.+++++X++X++XXO XXXXXX +XXX++$+++X++$+++XX +.XXXXXO XXXXXXO XXXXXXXXXXXXXXXXXXXXXXXXXXXXXXXXXXXXXXXXXXXXXXXXXXXXXXXXXXXXXO",
" XXX++XXX +++X++X++X +++X++XXXXXO XXXXXXXXXXXXXXX++++ .+++. +++@X +++ X +++XXXXXXXXXXXXXXXO XXX++XXX++X++X++X +++X++++ XXXXO oooooo%&*=**-*------*&#oooooooO XX++X++X +++XX ++.XX++X++++++X++X++XXO XXXXX ++.XX++.+++X++.+++X +++@XXXXO XXXXXXO XXXXXXXXXXXXXXXXXXXXXXXXXXXXXXXXXXXXXXXXXXXXXXXXXXXXXXXXXXXXXO",
" XXX++XXX++XXX++X++X++XXX++XXXXXO XXXXXXXXXXXXXX+++X+@++@+@++@+ X++X++X++XXXXXXXXXXXXXXXXXO.XXX++XXX++X++X++X++XX.++X+@XXXXO ooooo%&;=*=******-:--*&#ooooooO XX++X++X++XXXX+++.XX++XXX++XXX++X++XXO XXXXX+++.XX++ +++X++ +++X++@+ XXXXO XXXXXXO XXXXXXXXXXXXXXXXXXXXXXXXXXXXXXXXXXXXXXXXXXXXXXXXXXXXXXXXXXXXXO",
".XXX++XXX++XXX++X++X++XXX++XXXXXO.XXXXXXXXXXXXXX +++XX++XXX++X++X++X+.X++XXXXXXXXXXXXXXXXXO.XXX++XXX++X++X++X++XX.+++XXXXXXO.ooooo>;;;;;;;;;==*-:,:*<ooooooO.XX++X++X++XXX$+.+ XX++XXX++XXX++X++XXO.XXXX$+.+ XX++ +++X++ +++X++X++XXXXO.XXXXXXO XXXXXXXXXXXXXXXXXXXXXXXXXXXXXXXXXXXXXXXXXXXXXXXXXXXXXXXXXXXXXO",
".XXX++XXX++++X++X++X++++X++XXXXXO.XXXXXXXXXXXXXXX +++X++XXX++X++X+++ XX++++XXXXXXXXXXXXXXXO.XXX++XXX++X++X++X++++X +++XXXXXO.oooo%&;;&>1<<;1122*:,--3#oooooO.XX+++++X++++X.+X++XX++XXX++XXX+++++XXO.XXXX.+X++XX+ + ++X+ + ++X++X++XXXXO.XXXXXXO.XXXXXXXXXXXXXXXXXXXXXXXXXXXXXXXXXXXXXXXXXXXXXXXXXXXXXXXXXXXXXO",
".XXX++XXX++XXX++X++X++XXX++XXXXXO.XXXXXXXXXXXXXXXX ++ ++XXX++X++X++++.X++XXXXXXXXXXXXXXXXXO.XXX++XXX++X++X++X++XXXX ++ XXXXO.oooo%&;&>14411;5>1&-:;1*#oooooO.XX++X++X++XXX.+X++$X++XXX++XXX++X++XXO.XXXX.+X++$X+.+@++X+.+@++X++X++XXXXO.XXXXXXO.XXXXXXXXXXXXXXXXXXXXXXXXXXXXXXXXXXXXXXXXXXXXXXXXXXXXXXXXXXXXXO",
".XXX++XXX++XXX +.++X++XXX++XXXXXO.XXXXXXXXXXXXXX++X++ ++ @X +.++X++@+ X++XXXXXXXXXXXXXXXXXO.XXX++XXX++X +.++X++XX.+X++ XXXXO.oooo%&&1677789150>1-;61&#oooooO.XX++X++X++XXX ++++.X++XXX++XXX++X++XXO.XXXX ++++.X+X+X++X+X+X++X +.++XXXXO.XXXXXXO.XXXXXXXXXXXXXXXXXXXXXXXXXXXXXXXXXXXXXXXXXXXXXXXXXXXXXXXXXXXXXO",
".XXX++++.++++X.+++.X++++X++++.XXO.XXXXXXXXXXXXXX ++++@@++++. ++ X++X++X++++XXXXXXXXXXXXXXXO.XXX++++.++X.+++.X++++ ++++@XXXXO.oooo%>99qwwqq77e699*r791#oooooO.XX++X++X++++X +XX+ X++++.++XXX++X++XXO.XXXX +XX+ X+X+X++X+X+X++X. ++ XXXXO.XXXXXXO.XXXXXXXXXXXXXXXXXXXXXXXXXXXXXXXXXXXXXXXXXXXXXXXXXXXXXXXXXXXXXO",
".XXX++++@++++XX.+.XX++++X++++@XXO.XXXXXXXXXXXXXXX@ +XXX@ ++X.+ @X++X++X++++XXXXXXXXXXXXXXXO.XXX++++@++XX.+.XX++++X ++ XXXXXO.oooo%>97ttttttry76u;rt8>%oooooO.XX++X++X++++X++XX++X++++@++XXX++X++XXO.XXXX++XX++X+X+X++X+X+X++XX.+ @XXXXO.XXXXXXO.XXXXXXXXXXXXXXXXXXXXXXXXXXXXXXXXXXXXXXXXXXXXXXXXXXXXXXXXXXXXXO",
".XXXXXXXXXXXXXXXXXXXXXXXXXXXXXXXO.XXXXXXXXXXXXXXXXXXXXXXXXXXXXXXXXXXXXXXXXXXXXXXXXXXXXXXXXO.XXXXXXXXXXXXXXXXXXXXXXXXXXXXXXXO.oooo%>9ruqrttttryeurtt7>%oooooO.XXXXXXXXXXXXXXXXXXXXXXXXXXXXXXXXXXXXXO.XXXXXXXXXXXXXXXXXXXXXXXXXXXXXXXXXXO.XXXXXXi.XXXXXXXXXXXXXXXXXXXXXXXXXXXXXXXXXXXXXXXXXXXXXXXXXXXXXXXXXXXXXi",
".XXXXXXXXXXXXXXXXXXXXXXXXXXXXXXXO.XXXXXXXXXXXXXXXXXXXXXXXXXXXXXXXXXXXXXXXXXXXXXXXXXXXXXXXXO.XXXXXXXXXXXXXXXXXXXXXXXXXXXXXXXO.oooo%p87rtasattt7ertsr7>%oooooO.XXXXXXXXXXXXXXXXXXXXXXXXXXXXXXXXXXXXXO.XXXXXXXXXXXXXXXXXXXXXXXXXXXXXXXXXXO.XXXXXXi.XXXXXXXXXXXXXXXXXXXXXXXXXXXXXXXXXXXXXXXXXXXXXXXXXXXXXXXXXXXXXi",
".XXXXXXXXXXXXXXXXXXXXXXXXXXXXXXXO.XXXXXXXXXXXXXXXXXXXXXXXXXXXXXXXXXXXXXXXXXXXXXXXXXXXXXXXXO.XXXXXXXXXXXXXXXXXXXXXXXXXXXXXXXO.oooo%p8r#%od7wwru7oofa7p%oooooO.XXXXXXXXXXXXXXXXXXXXXXXXXXX+g+X$hhXXXO.XXXXXXXXXXXXXXXXXXXXXXXXXXXXXXXXXXO.XXXXXXi.XXXXXXXXXXXXXXXXXXXXXXXXXXXXXXXXXXXXXXXXXXXXXXXXXXXXXXXXXXXXXi",
".XXXXXXXXXXXXXXXXXXXXXXXXXXXXXXXO.XXXXXXXXXXXXXXXXXXXXXXXXXXXXXXXXXXXXXXXXXXXXXXXXXXXXXXXXO.XXXXXXXXXXXXXXXXXXXXXXXXXXXXXXXi.ooo%qj7fklzzzdddzz%lkfrjq%ooooO.XXXXXXXXXXXXXXXXXXXXXXXXXXXgggX ghXXXi.XXXXXXXXXXXXXXXXXXXXXXXXXXXXXXXXXXi.XXXXXXi.XXXXXXXXXXXXXXXXXXXXXXXXXXXXXXXXXXXXXXXXXXXXXXXXXXXXXXXXXXXXXi",
".XXXXXXXXXXXXXXXXXXXXXXXXXXXXXXXi.XXXXXXXXXXXXXXXXXXXXXXXXXXXXXXXXXXXXXXXXXXXXXXXXXXXXXXXXO.XXXXXXXXXXXXXXXXXXXXXXXXXXXXXXXi.ooo%7j77xcvbnmMdnxcvb77ju%ooooO.XXXXXXXXXXXXXXXXXXXXXXXXXXX+g+Xhg XXXi.XXXXXXXXXXXXXXXXXXXXXXXXXXXXXXXXXXi.XXXXXXi.XXXXXXXXXXXXXXXXXXXXXXXXXXXXXXXXXXXXXXXXXXXXXXXXXXXXXXXXXXXXXi",
".XXXXXXXXXXXXXXXXXXXXXXXXXXXXXXXi.XXXXXXXXXXXXXXXXXXXXXXXXXXXXXXXXXXXXXXXXXXXXXXXXXXXXXXXXi.XXXXXXXXXXXXXXXXXXXXXXXXXXXXXXXi.ooo%8N7wqqqqwrBqtqqqqw7N8%ooooO.XXXXXXXXXXXXXXXXXXXXXXXXXXXXXX$hg$XXXi.XXXXXXXXXXXXXXXXXXXXXXXXXXXXXXXXXXi.XXXXXXi.XXXXXXXXXXXXXXXXXXXXXXXXXXXXXXXXXXXXXXXXXXXXXXXXXXXXXXXXXXXXXi",
".XXXXXXXXXXXXXXXXXXXXXXXXXXXXXXXi.XXXXXXXXXXXXXXXXXXXXXXXXXXXXXXXXXXXXXXXXXXXXXXXXXXXXXXXXi.XXXXXXXXXXXXXXXXXXXXXXXXXXXXXXXi.ooo%7uqBBssBwqatttBssBqw7%ooooO.XXXXXXXXXXXXXXXXXXXXXXXXXXXXXX+ghXXXXi.XXXXXXXXXXXXXXXXXXXXXXXXXXXXXXXXXXi.XXXXXXi.XXXXXXXXXXXXXXXXXXXXXXXXXXXXXXXXXXXXXXXXXXXXXXXXXXXXXXXXXXXXXi",
".XXXXXXXXXXXXXXXXXXXXXXXXXXXXXXXi.XXXXXXXXXXXXXXXXXXXXXXXXXXXXXXXXXXXXXXXXXXXXXXXXXXXXXXXXi.XXXXXXXXXXXXXXXXXXXXXXXXXXXXXXXi.ooo%umqtBBttVrBtMttBBtq7q%ooooO.XXXXXXXXXXXXXXXXXXXXXXXXXXXXXXhg XXXXi.XXXXXXXXXXXXXXXXXXXXXXXXXXXXXXXXXXi.XXXXXXi.XXXXXXXXXXXXXXXXXXXXXXXXXXXXXXXXXXXXXXXXXXXXXXXXXXXXXXXXXXXXXi",
".XXXXXXXXXXXXXXXXXXXXXXXXXXXXXXXi.XXXXXXXXXXXXXXXXXXXXXXXXXXXXXXXXXXXXXXXXXXXXXXXXXXXXXXXXi.XXXXXXXXXXXXXXXXXXXXXXXXXXXXXXXi.ooood2mrtttMd3339qtttrm2doooooO.XXXXXXXXXXXXXXXXXXXXXXXXXXXXX$hg$XXXXi.XXXXXXXXXXXXXXXXXXXXXXXXXXXXXXXXXXi.XXXXXXi.XXXXXXXXXXXXXXXXXXXXXXXXXXXXXXXXXXXXXXXXXXXXXXXXXXXXXXXXXXXXXi",
".XXXXXXXXXXXXXXXXXXXXXXXXXXXXXXXi.XXXXXXXXXXXXXXXXXXXXXXXXXXXXXXXXXXXXXXXXXXXXXXXXXXXXXXXXi.XXXXXXXXXXXXXXXXXXXXXXXXXXXXXXXi.oooo%2q7qwwquuVqwrttq7u2%oooooO.XXXXXXXXXXXXXXXXXXXXXXXXXXXXX ghXXXXXi.XXXXXXXXXXXXXXXXXXXXXXXXXXXXXXXXXXi.XXXXXXi.XXXXXXXXXXXXXXXXXXXXXXXXXXXXXXXXXXXXXXXXXXXXXXXXXXXXXXXXXXXXXi",
".XXXXXXXXXXXXXXXXXXXXXXXXXXXXXXXi.XXXXXXXXXXXXXXXXXXXXXXXXXXXXXXXXXXXXXXXXXXXXXXXXXXXXXXXXi.XXXXXXXXXXXXXXXXXXXXXXXXXXXXXXXi.oooo#2ruwwMrwwqwtrMttuq2#oooooO.XXXXXXXXXXXXXXXXXXXXXXXXXXXXX+g XXXXXi.XXXXXXXXXXXXXXXXXXXXXXXXXXXXXXXXXXi.XXXXXXi.XXXXXXXXXXXXXXXXXXXXXXXXXXXXXXXXXXXXXXXXXXXXXXXXXXXXXXXXXXXXXi",
".XXXXXXXXXXXXXXXXXXXXXXXXXXXXXXXi.XXXXXXXXXXXXXXXXXXXXXXXXXXXXXXXXXXXXXXXXXXXXXXXXXXXXXXXXi.XXXXXXXXXXXXXXXXXXXXXXXXXXXXXXXi.ooooo%rqwtm9mVVVm9mttqr%ooooooO.XXXXXXXXXXXXXXXXXXXXXXXXXXXX$hg$XXXXXi.XXXXXXXXXXXXXXXXXXXXXXXXXXXXXXXXXXi.XXXXXXi.XXXXXXXXXXXXXXXXXXXXXXXXXXXXXXXXXXXXXXXXXXXXXXXXXXXXXXXXXXXXXi",
".XXXXXXXXXXXXXXXXXXXXXXXXXXXXXXXi.XXXXXXXXXXXXXXXXXXXXXXXXXXXXXXXXXXXXXXXXXXXXXXXXXXXXXXXXi.XXXXXXXXXXXXXXXXXXXXXXXXXXXXXXXi.ooooo%rrtqruwttaturqtCwZooooooO.XXXXXXXXXXXXXXXXXXXXXXXXXXXX+ghXXXXXXi.XXXXXXXXXXXXXXXXXXXXXXXXXXXXXXXXXXi.XXXXXXi.XXXXXXXXXXXXXXXXXXXXXXXXXXXXXXXXXXXXXXXXXXXXXXXXXXXXXXXXXXXXXi",
".XXXXXXXXXXXXXXXXXXXXXXXXXXXXXXXi.XXXXXXXXXXXXXXXXXXXXXXXXXXXXXXXXXXXXXXXXXXXXXXXXXXXXXXXXi.XXXXXXXXXXXXXXXXXXXXXXXXXXXXXXXi.ooooo%7rtttrqMyMqrtttrwZooooooO.XXXXXXXXXXXXXXXXXXXXXXXXXXXXhg@XXXXXXi.XXXXXXXXXXXXXXXXXXXXXXXXXXXXXXXXXXi.XXXXXXi.XXXXXXXXXXXXXXXXXXXXXXXXXXXXXXXXXXXXXXXXXXXXXXXXXXXXXXXXXXXXXi",
".XXXXXXXXXXXXXXXXXXXXXXXXXXXXXXXi.XXXXXXXXXXXXXXXXXXXXXXXXXXXXXXXXXXXXXXXXXXXXXXXXXXXXXXXXi.XXXXXXXXXXXXXXXXXXXXXXXXXXXXXXXi.ooooo%97CtBsBttttBstrqtZooooooO.XXXXXXXXXXXXXXXXXXXXXXXXXXX$ghX+g+XXXi.XXXXXXXXXXXXXXXXXXXXXXXXXXXXXXXXXXi.XXXXXXi.XXXXXXXXXXXXXXXXXXXXXXXXXXXXXXXXXXXXXXXXXXXXXXXXXXXXXXXXXXXXXi",
".XXXXXXXXXXXXXXXXXXXXXXXXXXXXXXXi.XXXXXXXXXXXXXXXXXXXXXXXXXXXXXXXXXXXXXXXXXXXXXXXXXXXXXXXXi.XXXXXXXXXXXXXXXXXXXXXXXXXXXXXXXi.ooooo%N97qtttr7rtttqMut#ooooooO.XXXXXXXXXXXXXXXXXXXXXXXXXXXhg XgggXXXi.XXXXXXXXXXXXXXXXXXXXXXXXXXXXXXXXXXi.XXXXXXi.XXXXXXXXXXXXXXXXXXXXXXXXXXXXXXXXXXXXXXXXXXXXXXXXXXXXXXXXXXXXXi",
".XXXXXXXXXXXXXXXXXXXXXXXXXXXXXXXi.XXXXXXXXXXXXXXXXXXXXXXXXXXXXXXXXXXXXXXXXXXXXXXXXXXXXXXXXi.XXXXXXXXXXXXXXXXXXXXXXXXXXXXXXXi.ooooo%N<9m777ede777m9tt#ooooooO.XXXXXXXXXXXXXXXXXXXXXXXXXXXhh$X+g+XXXi.XXXXXXXXXXXXXXXXXXXXXXXXXXXXXXXXXXi.XXXXXXi.XXXXXXXXXXXXXXXXXXXXXXXXXXXXXXXXXXXXXXXXXXXXXXXXXXXXXXXXXXXXXi",
".XXXXXXXXXXXXXXXXXXXXXXXXXXXXXXXi.XXXXXXXXXXXXXXXXXXXXXXXXXXXXXXXXXXXXXXXXXXXXXXXXXXXXXXXXi.XXXXXXXXXXXXXXXXXXXXXXXXXXXXXXXi.ooooo#N5<444445<11NNett#ooooooO.XXXXXXXXXXXXXXXXXXXXXXXXXXXXXXXXXXXXXi.XXXXXXXXXXXXXXXXXXXXXXXXXXXXXXXXXXi.XXXXXXi.XXXXXXXXXXXXXXXXXXXXXXXXXXXXXXXXXXXXXXXXXXXXXXXXXXXXXXXXXXXXXi",
".XXXXXXXXXXXXXXXXXXXXXXXXXXXXXXXi.XXXXXXXXXXXXXXXXXXXXXXXXXXXXXXXXXXXXXXXXXXXXXXXXXXXXXXXXi.XXXXXXXXXXXXXXXXXXXXXXXXXXXXXXXi.ooooo#N5211299999detteqoooooooO.XXXXXXXXXXXXXXXXXXXXXXXXXXXXXXXXXXXXXi.XXXXXXXXXXXXXXXXXXXXXXXXXXXXXXXXXXi.XXXXXXi.XXXXXXXXXXXXXXXXXXXXXXXXXXXXXXXXXXXXXXXXXXXXXXXXXXXXXXXXXXXXXi",
".XXXXXXXXXXXXXXXXXXXXXXXXXXXXXXXi.XXXXXXXXXXXXXXXXXXXXXXXXXXXXXXXXXXXXXXXXXXXXXXXXXXXXXXXXi.XXXXXXXXXXXXXXXXXXXXXXXXXXXXXXXi.oooooo15129978eeedrCtteoooooooO.XXXXXXXXXXXXXXXXXXXXXXXXXXXXXXXXXXXXXi.XXXXXXXXXXXXXXXXXXXXXXXXXXXXXXXXXXi.XXXXXXi.XXXXXXXXXXXXXXXXXXXXXXXXXXXXXXXXXXXXXXXXXXXXXXXXXXXXXXXXXXXXXi",
".XXXXXXXXXXXXXXXXXXXXXXXXXXXXXXXi.XXXXXXXXXXXXXXXXXXXXXXXXXXXXXXXXXXXXXXXXXXXXXXXXXXXXXXXXi.XXXXXXXXXXXXXXXXXXXXXXXXXXXXXXXi.oooooo1129V7r7ttqe7Bqq6oooooooO.XXXXXXXXXXXXXXXXXXXXXXXXXXXXXXXXXXXXXi.XXXXXXXXXXXXXXXXXXXXXXXXXXXXXXXXXXi.XXXXXXi.XXXXXXXXXXXXXXXXXXXXXXXXXXXXXXXXXXXXXXXXXXXXXXXXXXXXXXXXXXXXXi",
"XOOOOOOOOOOOOOOiiiiiiiiiiiiiiiiiiXOOOOOOOOOOOOOOOOOOOOOOOOOiiiiiiiiiiiiiiiiiiiiiiiiiiiiiiiiXOOOOOOOOOOOOiiiiiiiiiiiiiiiiiiiioOOOOOOOOOOOOOOOOOOOOOOOOOOOOOOOXOOOOOOOOOOOOOOOOOOiiiiiiiiiiiiiiiiiiiiXOOOOOOOOOOiiiiiiiiiiiiiiiiiiiiiiiiiXOiiiiiiXOOOOOOOOOOOOOOOOOOOOOOiiiiiiiiiiiiiiiiiiiiiiiiiiiiiiiiiiiiiiii"
};
