/* XPM */
static char *_c39a74e003a4a43ee3db686d43627c3[] = {
/* columns rows colors chars-per-pixel */
"32 32 47 1 ",
"  c #2E2B2D",
". c #2D312D",
"X c #362F31",
"o c #353434",
"O c #383430",
"+ c #393B34",
"@ c #36363A",
"# c #35393A",
"$ c #3B3C3C",
"% c #404039",
"& c #383D40",
"* c #413E41",
"= c #434244",
"- c #4A4347",
"; c #4B4A46",
": c #4C4C4C",
"> c #524E4E",
", c #4D514C",
"< c #52514E",
"1 c #4E4D50",
"2 c #544E52",
"3 c #4E5152",
"4 c #535453",
"5 c #595655",
"6 c #565A55",
"7 c #5B5A55",
"8 c #555559",
"9 c #5A565A",
"0 c #565B5B",
"q c #5C5C5C",
"w c #615D5D",
"e c #5D615D",
"r c #61625E",
"t c #5D5D61",
"y c #625E62",
"u c #5E6262",
"i c #636363",
"p c #696564",
"a c #656965",
"s c #696964",
"d c #656569",
"f c #6A666A",
"g c #666B6B",
"h c #6A6A6B",
"j c #6D716D",
"k c #6F6B71",
"l c #737374",
/* pixels */
"i95ui9qq5quwuqiiqqr5eqd5qr00qwq9",
"9q5uq80r59tiitqqqqe79qdqrqr59i84",
"558p578y6q7rq0qu8ur8qqs9u0q79t9q",
"7q7p794w74wdtqriiiu44wp7aqq88qiq",
"qwqi4r5qqy5r0qqahj794rr4se95qerq",
"u9qp5r80ti7r68tphjq97r8qu0i5eiii",
"0qqw3a5wri9rqwryjhuqee2qrieq7reg",
"ytde8a6eqq6iiyiihde8i54q0tqqeq8q",
"fii79d5e9i8erwpthtd0q9w7iqqq0qeq",
"ppeeqy5r4eqtiwswt9dus5iqi0wqqwuq",
"dyqwqd8d6qqrdquqa3stp5pqqq8q0yu8",
"4i9tii9i80qdp8iiii96i6dd99q0qtqq",
">fqstq0y6q9st9ttap0qi5eeqw4:14q9",
"qdqs0e0yee9fq>7qkgeuq3qiw7:@O4qq",
"dwqsq94yqrrqr5udhwiu0qtyw93oO<98",
"q:<q3:;43q421:>4864:4824442:,8::",
"=  #@oX$o==-=&==$+O.o@$oo%$$$-*#",
",4,88::4::4544:,44,>:4434:6;,4,:",
"ie8df<o@:ter5eqe9iw99wiquui59tt8",
"s9uip<oo,9q0e0etr0765de6i886qtq5",
"d3jay541,iqq6eqddq660sq5r7859er7",
"g5ludattyi5e550ru77q7a89e6q6eqw6",
"t0jyqs0tie5eqwqiq099ei4qqqy8ee90",
"wppqudiiaq6idyw07qwqr745qrd6qe69",
"gsf8ptyir08tsqpuy<00yqqqquw6ue4q",
"luf8ip0ir7quswdywe85iqq9qie87e0t",
"gdsdaeid0qqrs9itrr8<yq05eiu2eu00",
"iuuiuppi96iui8rwrdq8e5uq0eqq5rq9",
"4i9ari0iqqqfw4tqaf9qi5qeqwq09uq8",
"qaqh0e0iqw8sq4eqsaeuq4qr9wrq6r7q",
"dwqs988yq9wqy5uifwueewqur8qq5pq8",
"h5efe55itttww8rqieiqttqqwyq79r89"
};
