/* XPM */
static char *d06a218bbcb64a598e670b1db0ce823b[] = {
/* columns rows colors chars-per-pixel */
"32 32 57 1 ",
"  c #2C2218",
". c #2F251B",
"X c #30261B",
"o c #31261C",
"O c #33281E",
"+ c #352A1F",
"@ c #362B20",
"# c #372C21",
"$ c #382D21",
"% c #392E23",
"& c #3B3025",
"* c #3D3226",
"= c #3E3327",
"- c #3F3428",
"; c #403529",
": c #41362A",
"> c #42372A",
", c #43382B",
"< c #44392C",
"1 c #453A2D",
"2 c #473B2F",
"3 c #483C2F",
"4 c #493D30",
"5 c #4B3F32",
"6 c #4C4033",
"7 c #4E4235",
"8 c #4F4336",
"9 c #504437",
"0 c #514537",
"q c #534739",
"w c #54483A",
"e c #55493B",
"r c #584C3E",
"t c #594D3F",
"y c #5B4F41",
"u c #5C5042",
"i c #5D5143",
"p c #5F5345",
"a c #605445",
"s c #615546",
"d c #635748",
"f c #65594A",
"g c #665A4B",
"h c #685C4D",
"j c #6B5F50",
"k c #6D6152",
"l c #6F6354",
"z c #736758",
"x c #74685A",
"c c #776B5D",
"v c #786C5E",
"b c #7A6E60",
"n c #7C7062",
"m c #7D7163",
"M c #7E7264",
"N c #7F7365",
"B c #807466",
/* pixels */
"tqooq70q.qcqqq:obbqeq@@7qe7q.eqe",
"0oqy47 oOemyiy4<o---.-=@q7qe.7ee",
"0@7vie--%7miiyq<=..o:%&@eeq@qc7e",
"7.qcii4$%oevijyd=.%&7-%o=<4o2cqq",
"voevBq4+.Oymmiid4@e9e<-&.:<+2veq",
"to#o +.=$<oeebbiq.cydd%@.@$.77cb",
"@4<o7q<<=#%Ooeq7oebyyi2<+e:3.Oee",
"q<<.eme4<=@-<. o97mbdi4=X6ye-<Oo",
"q3<@emds4%o4e<4=o.q5cb2.4yq77<44",
"o+@O7c77o.47qee2@=@@qyoqz7e60qe7",
"e4:@evs<-:<eee7y7=@%oq@evsiqqqq<",
"t6<<oy2.&ey4qye749:.@@imbiffy0e@",
"qee=4@#@veqqq8qq<q<%o7ecccbyie$y",
"qqe4<:%omqw7wee4294oq@oyqebci$ye",
"iffi7=$obppiqyy4797@eq7@o%444@qq",
"yfgie:%obzyfid3eq<o2zee44<@o=o7e",
"mbcdq74$zbbgdiye2=o:cid7e:%@o<eq",
"qwyb9eeoqccggge7=%o4cda<<4=@o%:<",
"@.@qb9q-.<e454.@.@:mchdyq94oo%%=",
"q22o7ce:@@@@oo=4@@oembddieoq<oo:",
"q7%@9c92.4yqee2e4@=@qzcga qbe::@",
"qq:<@ebq@9mjjjqe<::4%ebii@viae4:",
"weq:owi4@ecjlld<<e4:o7bme%byiqe4",
"ywq4o4:2.e7bjjy<ee7<@e77@ecjjaey",
"ye7<=..oo@@wcgdq94q@$$@@o2bggyee",
"@#o@@%%:=<:oegbw44 qbmie4:qjcbqe",
"qyq::<7<244=<wy@ooo=eqbweo5<qe79",
"chggqweqe:2=@o q44=:o ivy5o@@o.@",
"bjjj7q7y5eeo7bcyyq745:oevme<o<xb",
"cckjeewq224@ebbdaeee75<o7e@.o<bz",
"qivvm777<2ooo@dcdeeyy94$@o44< eq",
"o@qeqeqq4@<7qq@ebzqerr4@ew:4 qo@"
};
