/* XPM */
static char *d31faf40ee7f404fc953c02e0ac37fda[] = {
/* columns rows colors chars-per-pixel */
"32 32 61 1 ",
"  c #1E1603",
". c #221803",
"X c #231903",
"o c #251A03",
"O c #251B03",
"+ c #261C04",
"@ c #281C04",
"# c #291D04",
"$ c #2D1F05",
"% c #2E2005",
"& c #322205",
"* c #332305",
"= c #342405",
"- c #342406",
"; c #352506",
": c #392807",
"> c #3B2807",
", c #3D2A08",
"< c #3E2A08",
"1 c #3F2B08",
"2 c #402C08",
"3 c #422C08",
"4 c #432D08",
"5 c #452F09",
"6 c #473009",
"7 c #48310A",
"8 c #4C330B",
"9 c #4C340A",
"0 c #4E340B",
"q c #4F350B",
"w c #50350B",
"e c #53370B",
"r c #52370C",
"t c #56390B",
"y c #53380C",
"u c #54380C",
"i c #54390C",
"p c #583B0C",
"a c #583B0D",
"s c #593C0C",
"d c #5B3C0C",
"f c #5B3D0E",
"g c #5C3D0C",
"h c #5F3F0D",
"j c #5E3E0E",
"k c #5F3F0F",
"l c #5E400C",
"z c #61400C",
"x c #63420D",
"c c #60400F",
"v c #64420E",
"b c #66440D",
"n c #68460E",
"m c #6A460E",
"M c #634310",
"N c #644310",
"B c #664410",
"V c #674410",
"C c #684510",
"Z c #6B4711",
"A c #6C4811",
/* pixels */
"raaiaai,rjyijat,uNkjNv6#8q0,7q,@",
"yiaiay0,qvaijit3ibzabaq@ik00tgq@",
"rajjirr&azirjja4iVjtVly.ijtttjw@",
"iijjair*rjN6jai4jMjybjy@wjt0jst;",
"iijjiwr&szb8kgt4wbkwbaq@wzaqjzt;",
"iaajkrr&wqiqeks&yvjizvq&tbzwzlq&",
"iVkjza0&0w04w0t@izaibaa&tnjrvji&",
"yVbZzji@40q:wq0@jvjikji;qZlyNjq%",
"jCVZkjt+@$@4&++.tzjizt03wZbtbgw%",
"yMljbj6$7wq,0q,@rzaijjr,sAzsbk7,",
"yvMiNj0+tz07tjq+aVaijlq,znbgbaq&",
"aVjabje.tgttaar#wvlqazr;wAglVlq&",
"jMatvjt+qatqggr;qlj6rar;ynbjCj6%",
"iMvwkjq+qzlqzzr;eyq60q7#jbAzVM6+",
"izjtbjq&tzzqvlq;,i,,77,%anAzbjr.",
"aktsMja%tnjtVai%#%;+%%&.ibCvMla.",
"jzatzgi&yClibjq&,i,41q4+enAlMai.",
"qlvrzaq4qAbwNz7%ii77taq+jbVbMaq ",
"eMayjjy,jbgjVv42ajr6jar&azbbkki#",
"yVjialq,vnvlVaq&sji0tkj&wzlbbay&",
"ivzqaly;qAvjNjr&sslraji3tjjkjai4",
"yaj6etq;ebbanz7$jzaajbu,taaaaay4",
"yiq6qqq@gbAlbkq+eaajiaa3igkjaaq1",
"1e,,661%sZZvna0.qataiji:wkiylay,",
"+*&+&$%.ybAgbMa.iiiairq,ejyijyi4",
",y,4,q4.abCvNar yijjawr&jzaqjja4",
"ie96iay+lvVvMjq iikjiir;wjv8vai6",
"ivy6jay&avbbMai#iakjiir&ivb6aki4",
"sjrqava&wzlzvii$iakjjyr&twe0eks&",
"sajqjlt4tsjjgji4rNkazaq%qw95y0t@",
"szavjvy,ajajajr,aVNAzlt@40q:qqq@",
"etyjiji,aaljae04kCVCzgt+@+@,&+@."
};
