/* XPM */
static char *_c6dda413bf54f3af838f8d8f58ef496[] = {
/* columns rows colors chars-per-pixel */
"64 64 28 1 ",
"  c #980088",
". c black",
"X c gray33",
"o c gray44",
"O c #484848",
"+ c #7C7C7C",
"@ c gray66",
"# c #2C2C2C",
"$ c #989898",
"% c #646464",
"& c #202020",
"* c #A86840",
"= c #F0945C",
"- c #B47044",
"; c #FCB080",
": c #543C1C",
"> c #FCA470",
", c #FCC4A4",
"< c #FCD8C4",
"1 c #C87C4C",
"2 c #744C28",
"3 c #80502C",
"4 c #E88C58",
"5 c #DC8854",
"6 c #FCB890",
"7 c #FC9C60",
"8 c gray55",
"9 c white",
/* pixels */
"                                                                ",
"                                                                ",
"                                                                ",
"                                                                ",
"                                                                ",
"                                                                ",
"                                                                ",
"                                                                ",
"                                                                ",
"                                                                ",
"                                                                ",
"                                                                ",
"                                                                ",
"                                                                ",
"                                                                ",
"                                                                ",
"                                                                ",
"                                                                ",
"                                                                ",
"                                                                ",
"                                                                ",
"                                                                ",
"                                                                ",
"                                                                ",
"                                                                ",
"                                                                ",
"                                                                ",
"                                                                ",
"                                                                ",
"                                                                ",
"                                                                ",
"                                                                ",
"                                                                ",
"                                                                ",
"                                                                ",
"                                                                ",
"                                                                ",
"                                                                ",
"                                                                ",
"                                                                ",
"                                                                ",
"                                 .                              ",
"                                XoX                             ",
"                               O+@+O                            ",
"                               O+@+O                            ",
"                              ++O+O++                           ",
"                             #+$###%+X                          ",
"                             #+@o+o%+O                          ",
"                             #+@$$$%+#                          ",
"                             #O$@@@OO.                          ",
"                             #&+OOO.&.*                         ",
"                            =#&%###.&.*-                        ",
"                           =;;&%###.&:*-                        ",
"                           >,<1....&&2---                       ",
"                           >;<<1333-4451-                       ",
"                          >;;<<<<,6;>445-                       ",
"                          >;4;<<<,6;>7451                       ",
"                          >;>4;;;;;>77451                       ",
"                          =;;77;;;>>77451                       ",
"                          $$$441=====$$$++                      ",
"                         $@@$8o%***%$@@$$+%                     ",
"                        $@@$$+o%XO%+8@@$$$+%                    ",
"                       $@@$$++o%XX%+8$888$$%X                   ",
"                       ++$$+o%%%XX%+%+$@@$$+%O                  "
};
