/* XPM */
static char *_ffea19da078411ed404d2f3af6af2f2[] = {
/* columns rows colors chars-per-pixel */
"64 64 30 1 ",
"  c #980088",
". c gray22",
"X c gray33",
"o c gray44",
"O c #484848",
"+ c #7C7C7C",
"@ c gray66",
"# c #646464",
"$ c gray55",
"% c #989898",
"& c #2C2C2C",
"* c #B4B4B4",
"= c #B47044",
"- c #FCA470",
"; c black",
": c #FCBC9C",
"> c #202020",
", c #BC7848",
"< c #C87C4C",
"1 c #FCB080",
"2 c #FCD8C4",
"3 c #FCB890",
"4 c #80502C",
"5 c #E88C58",
"6 c #DC8854",
"7 c #FCC4A4",
"8 c #FC9C60",
"9 c #F0945C",
"0 c #D08050",
"q c white",
/* pixels */
"                                                                ",
"                                                                ",
"                                                                ",
"                                                                ",
"                                                                ",
"                                                                ",
"                                                                ",
"                                                                ",
"                                                                ",
"                                                                ",
"                                                                ",
"                                                                ",
"                                                                ",
"                                                                ",
"                                                                ",
"                                                                ",
"                                                                ",
"                                                                ",
"                                                                ",
"                                                                ",
"                                                                ",
"                                                                ",
"                                                                ",
"                                                                ",
"                                                                ",
"                                                                ",
"                                                                ",
"                                                                ",
"                                                                ",
"                                                                ",
"                                                                ",
"                                                                ",
"                                                                ",
"                                                                ",
"                                                                ",
"                                   .                            ",
"                                  XoX                           ",
"                                 O+@+O                          ",
"                                 O+@+O                          ",
"                                 O+@+O                          ",
"                                 O+@+O                          ",
"                                ++#$#++                         ",
"                               #++#$#++#                        ",
"                               X+@.O.#+X                        ",
"                               X%%&&&#+O                        ",
"                               X@*o+o#+.                        ",
"                               X@****#O&=                       ",
"                              -X$*$$$OO;==                      ",
"                             -:XX+OOO&>;==                      ",
"                             -:#X#&&&;>;,==                     ",
"                             -:+X#&&&;;X<,=                     ",
"                            --11+X;;;>X=<,=                     ",
"                            --123<444=556<=                     ",
"                            -112777731-556=                     ",
"                            -151777731-856<                     ",
"                            -1-5------8856<                     ",
"                            91155888888550<                     ",
"                            61116000000000<                     ",
"                           %%%%+,,,,,++++++#                    ",
"                          %@@@%+oo<,X+%%%+++#                   ",
"                          %@@@%++oXX++%%++++#                   ",
"                         %%@%$o++#XX+++ooo####                  ",
"                        %@@@@%%o###OX+o+$+++###                 ",
"                        @@@@%%+++#XOXo+$$$+++##                 "
};
