/* XPM */
static char *ecd33686b83b4806d9a3ac0be1fb53b1[] = {
/* columns rows colors chars-per-pixel */
"64 64 38 1 ",
"  c #980088",
". c #980000",
"X c #FC0000",
"o c #EC0000",
"O c #FC9C9C",
"+ c #FC5454",
"@ c #FC5C5C",
"# c #FCFC54",
"$ c gray66",
"% c #7C7C7C",
"& c gray55",
"* c #D0D0D0",
"= c #B4B4B4",
"- c #484848",
"; c #2C2C2C",
": c #989898",
"> c #646464",
", c gray33",
"< c gray44",
"1 c black",
"2 c #202020",
"3 c #A86840",
"4 c #F0945C",
"5 c #B47044",
"6 c #FCB080",
"7 c #543C1C",
"8 c #FCA470",
"9 c #FCC4A4",
"0 c #FCD8C4",
"q c #C87C4C",
"w c #744C28",
"e c #80502C",
"r c #E88C58",
"t c #DC8854",
"y c #FCB890",
"u c #FC9C60",
"i c #A0643C",
"p c white",
/* pixels */
"                                                                ",
"                                                                ",
"                                                                ",
"                                                                ",
"                                                                ",
"                                                                ",
"                                                                ",
"                                                                ",
"                                                                ",
"                                                                ",
"                                                                ",
"                                                                ",
"                                                                ",
"                                                                ",
"                                                                ",
"                                                                ",
"                                                                ",
"                                                                ",
"                                                                ",
"                                                                ",
"                                                                ",
"                                                                ",
"                                                                ",
"                                                                ",
"                                                                ",
"                                                                ",
"                                                                ",
"                                                                ",
"                                                                ",
"                                                                ",
"                                                                ",
"                                                                ",
"                                                                ",
"                                                                ",
"                                                                ",
"                                                                ",
"                                  .                             ",
"                                 .X.                            ",
"                              X  oOo  X                         ",
"                               +@@O@@+                          ",
"                               oOO#O+o                          ",
"                              .+#$%$#+o                         ",
"                             .@O$&*&$O@.                        ",
"                              .o%=*=%o.                         ",
"                                -=*=-                           ",
"                               %%-%-%%                          ",
"                              ;%:;;;>%,                         ",
"                              ;%$<%<>%-                         ",
"                              ;%$:::>%;                         ",
"                              ;-:$$$--1                         ",
"                              ;2%---1213                        ",
"                             4;2>;;;12135                       ",
"                            4662>;;;12735                       ",
"                            890q111122w555                      ",
"                            8600qeee5rrtq5                      ",
"                           86600009y68rrt5                      ",
"                           86r60009y68urtq                      ",
"                           868r666668uurtq                      ",
"                           466uu66688uurtq                      ",
"                           :::$$q44444:::%%                     ",
"                          :$$:&<>33i>:$$::%>                    ",
"                         :$$::%<>,->%&$$:::%>                   ",
"                        :$$::%%<>,,>%&:&&&::>,                  ",
"                        %%::%<>>>,,>%>%:$$::%>-                 "
};
