/* XPM */
static char *_d803d9fdaf94c708b11b91e98307cef[] = {
/* columns rows colors chars-per-pixel */
"192 64 78 1 ",
"  c #980088",
". c gray66",
"X c gray55",
"o c #7C7C7C",
"O c gray33",
"+ c gray22",
"@ c #646464",
"# c gray44",
"$ c #484848",
"% c #2C2C2C",
"& c #C0C0C0",
"* c #D0D0D0",
"= c #202020",
"- c #483818",
"; c #6C4824",
": c #885830",
"> c black",
", c #A86840",
"< c #0004FC",
"1 c #FCB080",
"2 c #BC7848",
"3 c #989898",
"4 c #744C28",
"5 c #F0945C",
"6 c #FCBC9C",
"7 c #ECECEC",
"8 c #D08050",
"9 c #C80000",
"0 c #B45400",
"q c #9C6038",
"w c #B47044",
"e c #640000",
"r c #FC5C5C",
"t c #FCA85C",
"y c #E88C58",
"u c #FC4040",
"i c #980000",
"p c #FC8820",
"a c #FCF400",
"s c #A0643C",
"d c #FCA470",
"f c gray99",
"g c #DC8854",
"h c #905C34",
"j c #403018",
"k c #EC0000",
"l c #FC9C60",
"z c #FCB890",
"x c #C87C4C",
"c c #80502C",
"v c #FCD4BC",
"b c #5C4020",
"n c #FC2020",
"m c #543C1C",
"M c #382C14",
"N c #28200C",
"B c gainsboro",
"V c #B4B4B4",
"C c #FC7800",
"Z c #CC6000",
"A c #500050",
"S c #9C4C00",
"D c #FCC4A4",
"F c #0000A8",
"G c #00004C",
"H c #00007C",
"J c #000040",
"K c #000070",
"L c #000064",
"P c #0000BC",
"I c #000088",
"U c #0000E0",
"Y c #0000D4",
"T c #0000A4",
"R c #0000B0",
"E c #000058",
"W c #000098",
"Q c white",
/* pixels */
"                                                                                                                                                                                                ",
"                                                                                                                                                                                                ",
"                                                                                                                                                                                                ",
"                                                                                                                                                                                                ",
"                                                                                                                                                                                                ",
"                                                                                                                                                                                                ",
"                                                                                                                                                                                                ",
"                                                                                                                                                                                                ",
"                                                                                                                                                                                                ",
"                                                                                                                                                                                                ",
"                                                                                                                                                                                                ",
"                                                                                                                                                                                                ",
"                                                                                                                                                                                                ",
"                                                                                                                                                                                                ",
"                                                                                                                                                                                                ",
"                                                                                                                                                                                                ",
"                             ..XoO+                                                                                                                                                             ",
"                            ..@#O$%%                                                                                                                                                            ",
"                            Xo##OOO%                                                           ..XoO$                                                           ..XoO$                          ",
"                           +&*&.X#OO%                                                         .*XOO$+$                                                         .*XOO$+$                         ",
"                           o=-;::;-==                                                         XX@OO$+=                                                         XX@OO$+=                         ",
"                          o$>,<12<,>==                                                        3o#OO$+=                                                         3o#OO$+=                         ",
"                          >=4562,654==                                                       3&7&X#@O%=                                                       3&7&X#@O%=                        ",
"                           =-815518-=                                                       33%%%%%%%>%=                                                     39%00000%>%=                       ",
"                            -qw--wq-                                                          4,<12<,4                                                         er0t0re49                        ",
"                            >qy11y->                                                          -56=,65-                                                       ueipaaap0-                         ",
"                           >>>;sss>>>                                                         >q=7=y->                                                        e0ta7at0>                         ",
"                        wd@>f#>;g>#*>hhh                                                   dy>>>3>3=>>jh,                                                   dy>0krtak0>jh,                      ",
"                       dld@+#*>>>>*#w888,                                               zdxscj&>OoO>&j,,cq8                                              zdxscjerpp0re0,,cq8                    ",
"                      d58lg@c>$cjc>w555x8,                                             ,dd5ldd:v>%>2>>llllqw                                            ,dd5l9d:e000e>>llllqw                   ",
"                     d58qgl+@cll,lllllx8y8                                             2ddlldq12wdg22qb8822w                                            2ddlldq1nwd022qb8822w                   ",
"                    d58,cmgl++ll4lqq:4x4xy8                                            2zy,82;11wzd22qb,,,h4                                            2zy,82;11wzd22qb,,,h4                   ",
"                   d58,4MMsw8=+8jlqllmc4,8y,                                            2,sq::b:::,NN>>b444M                                             2,sq::b:::,NN>>b444M                   ",
"                   8q;cMM 4s88=++8:hhjjNh8y8;                                           bbbb-M==N>---w:-NMM                                              bbbb-M==N>---w:-NMM                    ",
"                  5dd2M   b4w88>=+w4jcjNh,wy,                                             cNNjm===$8ww:-N                                                  cNNjm===$8ww:-N                      ",
"                  5d,cM    bs8:8>>=+wcNM;Mc,8;                                             :-Njc===$ws:bM                                                   :-Njc===$ws:bM                      ",
"                  sdd8qM   -sw:s>8>>>-N Nbyy8;                                             x:m-jc>===:bM                                                    x:m-jc>===:bM                       ",
"                  h5mmm>  >==++BV3+%%=>  -;h2;                                             x5qmjj>:>>>bN                                                    x5qmjj>:>>>bN                       ",
"                   mw51yb55cM%%oo$===>>  -,82                                              O$+==XXO===>>                                                    O$+==XXO===>>                       ",
"                   4w1h=$bw5wj2c>wqws-bj Nchc                                              O$+==OOO===>>                                                    O$+==OOO===>>                       ",
"                    458$.Cbc8wjc>w88wcjj N--s                                              x5q844j44M;bN                                                    x5q844j44M;bN                       ",
"                     44=#.Zbbhhc>q88wh;j 15,-                                             x55g8w4A444c;-M                                                  x55g8w4A444c;-M                      ",
"                        =SSZjNNb>q88ws;j Mq8                                              x5588w4A4shh;-M                                                  x5588w4A4shh;-M                      ",
"                         =SSjbjN>q88ws;j-88                                              x55588wAAmshhc-M                                                 x55588wAAmshhc-M                      ",
"                          MbjbbMMMMMMMMN                                                 x5588w4ANA4h:c-MN                                                x5588w4ANA4h:c-MN                     ",
"                          2q,qcbMccccbbN                                                 h:44jj>NMN>>>>>>N                                                h:44jj>NMN>>>>>>N                     ",
"                         25d5,q4M4y8ssbN                                                 wgyy2bjN Nbs2gscN                                                wgyy2bjN Nbs2gscN                     ",
"                         55d58,M My88ssN                                                wxyll2cjN Nb2glwsj                                               wxyll2cjN Nb2glwsj                     ",
"                        25d58,cM -sd8smN                                                wxl1l2:N   Nh8glwj                                               wxl1l2:N   Nh8glwj                     ",
"                        25D8ccMM M:d8s;j                                                wg1142bN   N;4qllbj                                              wg1142bN   N;4qllbj                    ",
"                       25D1d,mM  c2ydscN                                                w18254N     N2lgssj                                              w18254N     N2lgssj                    ",
"                       x51q,dcj  M-1zdxmN                                              wgl12-4jN   NbbsglsbN                                            wgl12-4jN   NbbsglsbN                   ",
"                       x5d5cjj    -2,hcmN                                              wgl12h-N     Nh2ggsbN                                            wgl12h-N     Nh2ggsbN                   ",
"                       5d58,cM   Mhyd8smN                                              wyll2:bN     Nh888sbN                                            wyll2:bN     Nh888sbN                   ",
"                       c2qcmNM   M-h,:;jN                                              h22244j      NbhhbbNN                                            h22244j      NbhhbbNN                   ",
"                       >>>>>>     >>>>>>                                               >=====>       >====>                                             >=====>       >====>                    ",
"                       >FG==>     >====>                                               >HHJ==        >FKJJ>                                             >HHJ==        >FKJJ>                    ",
"                       >HG==>     >FK==>                                               >FGJ==        >LFGJ>                                             >FGJ==        >LFGJ>                    ",
"                      >FPIJ>      >JFG=>                                               >UHJ==         =FUJ=>                                            >UHJ==         =FUJ=>                   ",
"                      >IK=>>       >FG=>                                               >FGJ=          >LFG=>                                            >FGJ=          >LFG=>                   ",
"                      >FG==        >FK>                                                LFG=>           =FKJ>                                            LFG=>           =FKJ>                   ",
"                     >FYTLJ>      >JFYK>                                              %FYHG=>         =IYRRK>                                          %FYHG=>         =IYRRK>                  ",
"                    >EIIGJ=>      >LGTLJ>                                            %FKKJG=>         >FWKJJ=>                                        %FKKJG=>         >FWKJJ=>                 ",
"                    >======        =====>                                            ======>           >=====>                                        ======>           >=====>                 "
};
