/* XPM */
static char *eedc7fd302834bd2a62de28bf9548618[] = {
/* columns rows colors chars-per-pixel */
"7 15 8 1 ",
"  c #0000A4",
". c #D8D8FC",
"X c #B8BCFC",
"o c #9C9CFC",
"O c #5C60FC",
"+ c #7C80FC",
"@ c #4040FC",
"# c white",
/* pixels */
"       ",
" ......",
" .X....",
" .o    ",
" .o    ",
"O.OoXX+",
"o.....X",
"X.oX...",
".@ O...",
"    ...",
"    ...",
" .  ..o",
"..O .. ",
"...O.o ",
"O...o  "
};
