/* XPM */
static char *ccaed92b140b430de483229134dde62f[] = {
/* columns rows colors chars-per-pixel */
"7 15 7 1 ",
"  c #0000A4",
". c #D8D8FC",
"X c #B8BCFC",
"o c #7C80FC",
"O c #4040FC",
"+ c #9C9CFC",
"@ c white",
/* pixels */
"   .   ",
"  ...  ",
" ....X ",
"..Xo..o",
"..XO..X",
"..X ..X",
"..X ...",
"X..o...",
"+.....X",
" +. ..X",
"   O..+",
"   O.XO",
"   o.X ",
"   X.+ ",
"   ..O "
};
