/* XPM */
static char *_821d9e666034536d57b135e6ff0ce57[] = {
/* columns rows colors chars-per-pixel */
"7 15 5 1 ",
"  c #0000A4",
". c #5C60FC",
"X c #B8BCFC",
"o c #D8D8FC",
"O c white",
/* pixels */
"       ",
" .Xo   ",
" Xoo   ",
" ooo   ",
" ooo   ",
" ooo   ",
" ooo   ",
" ooo   ",
" ooo   ",
" ooo   ",
" ooo   ",
" ooo   ",
" ooo   ",
" ooo   ",
" ooo   "
};
