/* XPM */
static char *_d4ec91f6d89475c8d784291cfa01314[] = {
/* columns rows colors chars-per-pixel */
"7 15 7 1 ",
"  c #0000A4",
". c #B8BCFC",
"X c #9C9CFC",
"o c #D8D8FC",
"O c #7C80FC",
"+ c #4040FC",
"@ c white",
/* pixels */
"       ",
"  .X   ",
" .oO   ",
"+.o+   ",
"Xoo+   ",
".oo oX ",
".oooooX",
"oooOoo.",
"ooo .oo",
".oo .oo",
".oo .oo",
"O.oO.oo",
" .oooo ",
"  .oo  ",
"   o   "
};
