/* XPM */
static char *b07ab00af6fb4d92ee7dae9266c09633[] = {
/* columns rows colors chars-per-pixel */
"7 15 8 1 ",
"  c #0000A4",
". c #7C80FC",
"X c #B8BCFC",
"o c #D8D8FC",
"O c #5C60FC",
"+ c #9C9CFC",
"@ c #4040FC",
"# c white",
/* pixels */
"       ",
" .XoooO",
" Xooooo",
" o+@Ooo",
" X  Ooo",
"   OXoO",
"  .oo  ",
"   XooO",
"   O+oo",
"    Ooo",
"     oo",
"  X  oo",
" Xo+ oo",
" OoooX ",
"  OXo  "
};
