/* XPM */
static char *_950de5ea2fe4930e5179a5d55122477[] = {
/* columns rows colors chars-per-pixel */
"7 15 7 1 ",
"  c #0000A4",
". c #5C60FC",
"X c #B8BCFC",
"o c #D8D8FC",
"O c #4040FC",
"+ c #9C9CFC",
"@ c white",
/* pixels */
"       ",
" .Xooo.",
" Xooooo",
" oX.Xoo",
" XO .Xo",
"     Xo",
"    Ooo",
"    +oo",
"   OooX",
"   +oo.",
"  OooX ",
"  +oX. ",
" Ooo.  ",
" +ooooo",
" oooooo"
};
