/* XPM */
static char *_42fb4c751ef4ca6d7d639425979e6eb[] = {
/* columns rows colors chars-per-pixel */
"7 15 8 1 ",
"  c #0000A4",
". c #5C60FC",
"X c #B8BCFC",
"o c #D8D8FC",
"O c #7C80FC",
"+ c #4040FC",
"@ c #9C9CFC",
"# c white",
/* pixels */
"  .X   ",
" .XoX  ",
".XoooX ",
"XooOooX",
"ooo.ooo",
"ooo ooo",
"ooo ooo",
"ooo ooo",
"ooo ooo",
"ooo+ooo",
"@oo.ooo",
".XoXooo",
" .ooooX",
"  .ooX.",
"   .X. "
};
