/* XPM */
static char *_36d7ed445b24686d249b34479d722d3[] = {
/* columns rows colors chars-per-pixel */
"62 64 23 1 ",
"  c #980088",
". c gray66",
"X c gray55",
"o c gray44",
"O c #646464",
"+ c gainsboro",
"@ c #D0D0D0",
"# c #C0C0C0",
"$ c #B4B4B4",
"% c #989898",
"& c #7C7C7C",
"* c gray33",
"= c #484848",
"- c gray99",
"; c #ECECEC",
": c gray25",
"> c gray22",
", c #2C2C2C",
"< c #202020",
"1 c black",
"2 c #4C4C4C",
"3 c gray36",
"4 c white",
/* pixels */
"                         ....XXXXXXXooooO                     ",
"                    ..++@@@###$$..%%XX&ooO*=**                ",
"                  #--;;;+++@@@##$$.%o#X&oO*=:>>,              ",
"                 ;----;;;---++@##$$.%%X&&=*=:>><,             ",
"                +;;------;+@##$$..%X&&oOOOO>:>,<,,            ",
"                ++;;---;;@@@##.@..%X&&oOO*:=,,<<,,            ",
"                #++-;--;;;++@@##$$.%X&oO*=:,><<,,,            ",
"                 ##-;;--;;--++@##..%X&oO*:>,<<<,,             ",
"                   $;;----;+@#.$%X&oO*=:,>,<<<<               ",
"                    $##---;+@#$.%X&oO*=:>,,<<,                ",
"                     %#;--;+@#$.%X&o*O=:>,<<,                 ",
"                     %#;--;+@#$.%X&oO*=:>,<<,                 ",
"                     %#---;+@#$.X.&oO*=:,><<,                 ",
"                     %#---;+@#$X%.&oO*=:>,<<,                 ",
"                     %#---;+@#$.%X&oO:O:>,<<,                 ",
"                     %#---;+@#$.%X&oO*O:>,<<,                 ",
"                     %#;;+@#$.%X&oO*=:=,<<<<,                 ",
"                     %X.$..XX&ooOO*=:>,<<<<<<                 ",
"                      +-+;--;+@#$.%X&o*O=><,                  ",
"                     #+----+@#$.%X&oO*=*>,,<>                 ",
"                     #+---;+@@$.%&XoO*=:>,<<,                 ",
"                     %#---;+$;$.%Xo&O*=:>,<<,                 ",
"                     %#---;+#;$.%X&oO*=:,><<,                 ",
"                     %#---;+@@$.%X&o*O=:>,1<,                 ",
"                     %#---;+@#$.%X&oO*=,=,<<,                 ",
"                     %.---;$-#$.%X&oO*=:>,<<,                 ",
"                     %+---;+@#$.%&%oO*=>:,<<,                 ",
"                     %#---;+$+$.%X&oO=*:>,<<,                 ",
"                     %#---;+@#$.X%&oO*=:,><<,                 ",
"                     &%+;+@#$.%X&oO*=:>,<<<<<                 ",
"                      &%.%XX&&ooOO*=:>,<<111                  ",
"                     .@-----#+@#$.%X&oO*=>,,>                 ",
"                     %#---;+;#$.%X&oO*=:>,<<,                 ",
"                     %#---;+@#$.X%&O&*=:,:1<,                 ",
"                     %#---;+$;$.%X&oO*:=>,<<,                 ",
"                     %#--+-+@#$.%X&oO=*:><,<,                 ",
"                     %#-;-;+$#.$%&XoO**:>,<<<                 ",
"                     %#---;$-#$.%X&oO*=>:,<<,                 ",
"                     %#---;-@#$.%Xo&O*=:>,<<,                 ",
"                     %#--+-+@#$.X%&oO*:=,><<,                 ",
"                     %#---;+@$+.%X&o*O=:>,<<,                 ",
"                     %#---;@;#$.%Xo&O*=:,><<,                 ",
"                     &#;-;;+@#$%%X&oO=*:>,<<>                 ",
"                      .@+###$.%o%oO*=:>,<<<<                  ",
"                     .;$#@#%X&o*OO*=:>,<<<<<<                 ",
"                     %@-;---;+@#$X%X&oO*=><,,                 ",
"                     %#---;+@#$.%&%oO*=:,:<<,                 ",
"                     %#---@-@#%+%X&oO*=:>,<<,                 ",
"                     %#---;+@#$.%&%oO=*:>,<<,                 ",
"                     %#---;+@#$.%X&o*O=:>,<<,                 ",
"                     %#---;+@#%#%X&Oo*=:>,<<,                 ",
"                     %#---;+@.+.%X&oO*:*>,<<,                 ",
"                     %#;--@-@#$.%X&oO*=:>,<<,                 ",
"                     %#;--@-@#$.%X&oO=*:>,<<,                 ",
"                    $+#---;+@#$%$X&oO*=:>,><<,                ",
"                   $;;----;+@#$.%X&oO*=:,>,<<<,,              ",
"                 ##-;---;;--++@##..%X&oO*:>,<<<,,,:=2**33OO   ",
"                #++-;--;;;++@@##$$.%X&oO*=:,><<,,,>>:==2**3OO ",
"                ++;;---;;@@@##$$..X.&&oOO*:=,,<<,,>>>>:==2*33O",
"                +;;------;+@##$$..%X&&oOOoO22>,<,,>>>>:==2*33O",
"                 ;----;;;---++@##$$.%%X&&o3:3>><,>>>::=22*33O ",
"                  #--;;;+++@@@#$@$.%%X&XoO3=:>>,:::===2*33O   ",
"                    ..++@@@###$$..%%XX&ooO*=::=*333OOOOOO     ",
"                         ....XXXXXXXooooO*::=*3OO             "
};
